<svg width="574" height="207" viewBox="0 0 574 207" fill="none" xmlns="http://www.w3.org/2000/svg">
<path d="M145.292 72.366H158.953L173.658 111.983L188.363 72.366H201.703L178.961 129.019H168.033L145.292 72.366Z" fill="black"/>
<path d="M232.191 107.598C232.191 101.25 227.611 95.7048 220.861 95.7048C213.87 95.7048 209.691 101.089 209.691 107.598C209.691 113.946 214.272 119.49 221.022 119.49C228.013 119.49 232.191 114.106 232.191 107.598ZM197.638 107.598C197.638 95.2225 207.602 85.1777 221.022 85.1777C234.361 85.1777 244.245 95.0618 244.245 107.598C244.245 119.973 234.281 130.018 220.861 130.018C207.521 130.018 197.638 120.134 197.638 107.598Z" fill="black"/>
<path d="M247.199 120.455L269.458 95.8653H247.922V85.9816H284.646V94.5799L262.306 119.17H284.646V129.054H247.199V120.455Z" fill="black"/>
<path d="M307.342 100.93C307.342 84.9394 319.797 71.8405 336.833 71.8405C346.958 71.8405 353.066 74.5729 358.932 79.5549L351.137 88.9567C346.798 85.3409 342.941 83.2515 336.432 83.2515C327.431 83.2515 320.28 91.2073 320.28 100.93C320.28 111.217 327.351 118.77 337.315 118.77C341.815 118.77 345.833 117.645 348.967 115.395V107.359H336.512V96.6716H360.941V121.1C355.155 126.002 347.199 130.02 336.913 130.02C319.395 130.02 307.342 117.725 307.342 100.93Z" fill="black"/>
<path d="M369.267 85.9825H381.481V94.6611C383.972 88.7149 387.99 84.8572 395.222 85.1789V97.9557H394.58C386.463 97.9557 381.481 102.858 381.481 113.144V129.055H369.267V85.9825Z" fill="black"/>
<path d="M421.762 67.02L432.29 71.6005L422.004 81.2432H412.682L421.762 67.02ZM425.379 113.869V111.699C423.29 110.735 420.557 110.092 417.584 110.092C412.361 110.092 409.146 112.182 409.146 116.199C409.146 119.494 411.878 121.423 415.816 121.423C421.521 121.423 425.379 118.288 425.379 113.869ZM397.334 116.521C397.334 107.118 404.486 102.779 414.691 102.779C419.03 102.779 422.164 103.503 425.218 104.548V103.824C425.218 98.7615 422.084 95.9488 415.977 95.9488C411.316 95.9488 408.021 96.8327 404.084 98.2792L401.03 88.9576C405.771 86.8687 410.432 85.5025 417.745 85.5025C424.414 85.5025 429.236 87.2702 432.29 90.3238C435.504 93.5381 436.95 98.2792 436.95 104.065V129.057H425.138V124.396C422.164 127.69 418.066 129.86 412.12 129.86C404.004 129.86 397.334 125.199 397.334 116.521Z" fill="black"/>
<path d="M447.614 96.4311H442.552V86.3863H447.614V83.6539C447.614 78.9129 448.819 75.4577 451.069 73.2076C453.32 70.9575 456.614 69.8322 460.954 69.8322C464.81 69.8322 467.383 70.3146 469.632 71.0378V81.1629C467.864 80.52 466.177 80.1184 464.088 80.1184C461.275 80.1184 459.668 81.565 459.668 84.7787V86.4667H469.552V96.4311H459.829V129.057H447.614V96.4311Z" fill="black"/>
<path d="M475.494 87.3059H487.336V129.054H475.494V87.3059ZM475.185 72.1955H487.645V82.7102H475.185V72.1955Z" fill="black"/>
<path d="M492.337 107.598C492.337 95.3032 501.738 85.1777 514.917 85.1777C523.034 85.1777 528.016 88.2313 532.034 92.7315L524.882 99.964C522.23 97.4725 519.658 95.7048 514.837 95.7048C508.73 95.7048 504.39 101.089 504.39 107.598C504.39 114.187 508.649 119.49 515.319 119.49C519.417 119.49 522.23 117.723 525.203 114.911L532.355 122.143C528.176 126.723 523.354 130.018 514.757 130.018C501.819 130.018 492.337 120.054 492.337 107.598Z" fill="black"/>
<path d="M562.37 113.868V111.699C560.281 110.734 557.548 110.092 554.575 110.092C549.352 110.092 546.138 112.181 546.138 116.198C546.138 119.493 548.87 121.422 552.807 121.422C558.513 121.422 562.37 118.288 562.37 113.868ZM534.325 116.52C534.325 107.118 541.476 102.779 551.682 102.779C556.021 102.779 559.155 103.502 562.209 104.547V103.823C562.209 98.7604 559.075 95.9481 552.968 95.9481C548.307 95.9481 545.012 96.832 541.075 98.2785L538.021 88.957C542.762 86.8675 547.423 85.5013 554.736 85.5013C561.405 85.5013 566.227 87.2695 569.28 90.3232C572.495 93.5374 573.942 98.2785 573.942 104.064V129.056H562.129V124.395C559.155 127.69 555.057 129.859 549.111 129.859C540.995 129.859 534.325 125.199 534.325 116.52Z" fill="black"/>
<path d="M57.2438 72.2572H41.8801L77.0706 0L147.384 142.918H105.295L77.0706 115.566L50.5572 142.918H33.4039L77.0706 187.108L105.295 157.719H124.323L77.0706 206.774L0.0576172 129.045L44.7959 128.992L77.0706 95.9155L110.993 129.045H126.456L77.0706 31.5191L57.2438 72.2572Z" fill="black"/>
</svg>
